PathFileType	4	(X/Y/Z)	C:/Users/beibeiliu/ov580/test_trc/User3\sequence.37_training_dense_left.trc
DataRate	CameraRate	NumFrames	NumMarkers	Units	OrigDataRate	OrigDataStartFrame	OrigNumFrames
120	120	7	19	mm	120	1	93
Frame#	Time	ThumbCMC			ThumbMCP			ThumbIP			ThumbTip			IndexMCP			IndexPIP			IndexTip			MiddleMCP			MiddlePIP			MiddleTip			RingMCP			RingPIP			RingTip			PinkyMCP			PinkyPIP			PinkyTip			BackHand1			BackHand2			BackHand3	
		X0	Y0	Z0	X1	Y1	Z1	X2	Y2	Z2	X3	Y3	Z3	X4	Y4	Z4	X5	Y5	Z5	X6	Y6	Z6	X7	Y7	Z7	X8	Y8	Z8	X9	Y9	Z9	X10	Y10	Z10	X11	Y11	Z11	X12	Y12	Z12	X13	Y13	Z13	X14	Y14	Z14	X15	Y15	Z15	X16	Y16	Z16	X17	Y17	Z17	X18	Y18	Z18	
0	0	-141.348	-11.5381	47.9895	-125.361	-23.9284	26.8233	-107.033	-33.1668	3.98678	-97.7892	-44.2777	-17.714	-169.86	0.845584	-25.3526	-164.446	-0.13211	-52.4985	-162.51	-6.56405	-83.3191	-194.215	1.5186	-29.8572	-198.216	-1.88976	-59.1522	-202.391	-15.475	-89.0701	-214.64	-6.4286	-21.3705	-222.932	-10.0495	-42.4004	-231.924	-22.3744	-66.314	-235.082	-17.9886	-1.40636	-243.773	-24.8282	-17.2093	-251.311	-34.2952	-39.567	-206.346	7.63011	27.6166	-203.386	10.1317	62.4328	-173.229	11.2386	38.4874	
1	0.00833333	-142.65	-14.826	44.2344	-123.771	-25.6734	23.8255	-111.796	-36.387	1.3578	-98.7225	-47.906	-19.1701	-170.139	-1.57367	-28.9087	-166.228	-3.27196	-58.6176	-164.664	-11.1167	-85.7464	-193.78	-1.28541	-34.4445	-196.87	-4.94929	-58.7993	-202.581	-20.3057	-90.5589	-218.27	-9.37884	-20.296	-221.724	-14.45	-44.7372	-231.949	-28.8159	-72.5833	-231.09	-20.7279	-0.404442	-245.118	-30.3439	-23.726	-252.999	-39.065	-39.7607	-207.634	3.89853	30.0179	-202.637	8.34892	57.9119	-172.322	7.77649	35.0946	
2	0.0166667	-144.06	-15.0189	44.4671	-127.02	-24.9342	24.2695	-109.196	-35.1839	-3.76369	-102.173	-44.8922	-18.2047	-167.365	-1.36123	-34.4075	-168.6	-3.97449	-58.1346	-162.854	-10.9143	-83.7567	-197.522	-2.39511	-32.434	-199	-7.98022	-61.605	-199.961	-23.8938	-90.7413	-213.861	-11.3897	-21.5013	-223.19	-20.461	-50.6718	-230.931	-35.7615	-72.6954	-233.419	-23.5445	-3.75384	-243.486	-35.2064	-24.3519	-247.28	-48.3289	-42.2414	-210.501	2.31379	28.2239	-204.226	4.14162	56.3714	-175.732	6.81207	37.0474	
3	0.025	-145.523	-6.91826	37.4092	-131.404	-16.2809	17.8725	-114.468	-23.0608	-5.955	-104.06	-31.3687	-21.729	-176.458	2.39158	-35.3401	-171.001	0.426722	-63.8588	-172.919	-9.49509	-84.0248	-200.079	-2.8127	-33.3057	-202.723	-11.2817	-65.7415	-200.998	-31.1202	-91.3355	-216.222	-15.5396	-26.6634	-222.399	-27.3986	-52.3399	-221.905	-43.0107	-71.3854	-228.219	-30.1944	-6.68507	-235.133	-42.4393	-29.8754	-237.224	-60.0505	-46.9689	-214.964	-2.5694	23.5553	-214.554	-0.823293	54.4879	-182.388	9.66885	32.8655	
4	0.0333333	-157.163	1.96161	39.6753	-137.525	-1.25361	13.0416	-119.297	-2.96377	-8.59015	-108.224	-9.23449	-28.5422	-184.522	6.65587	-33.6997	-181.996	3.2035	-60.679	-173.894	-6.14047	-85.3612	-205.594	-7.12668	-40.7604	-200.739	-19.241	-69.1458	-190.901	-37.3932	-89.7631	-218.403	-29.9578	-26.9158	-213.031	-41.0439	-55.6748	-203.218	-62.2136	-72.3328	-226.034	-48.4161	-10.4972	-220.76	-57.3469	-30.8899	-213.007	-76.6836	-47.7648	-222.613	-12.4773	23.3256	-217.255	-8.07227	51.4462	-194.73	8.16888	32.2172	
5	0.0416667	-168.019	7.34238	33.6295	-149.773	7.58175	10.8756	-134.096	8.50836	-16.117	-120.068	6.70207	-34.1097	-195.24	1.69775	-33.9186	-190.771	-7.12134	-64.8469	-177.892	-11.7904	-84.8667	-210.939	-23.6927	-39.4872	-201.093	-30.3267	-66.7612	-181.039	-49.2321	-85.9246	-213.523	-45.9715	-26.6377	-202.572	-58.3577	-52.9072	-185.009	-72.3768	-65.8262	-213.847	-62.1682	-10.2819	-204.781	-71.6086	-28.1885	-185.568	-86.6714	-41.6941	-222.386	-25.5935	26.6252	-220.697	-24.4542	54.223	-204.085	3.74323	32.7108	
6	0.05	-179.38	9.8984	31.6468	-161.591	13.036	6.70266	-148.029	13.5804	-15.2732	-137.24	12.9035	-36.9986	-206.535	-13.0799	-38.7279	-197.916	-12.3359	-62.1426	-181.633	-20.7934	-83.5911	-212.363	-38.56	-39.11	-200.827	-41.1305	-63.8544	-171.271	-52.809	-84.485	-207.638	-54.2375	-24.0613	-194.022	-66.8547	-48.6557	-167.021	-73.8002	-65.3991	-201.457	-76.7467	-7.95471	-184.95	-83.9827	-28.4332	-164.387	-88.6052	-39.019	-219.853	-39.767	27.9987	-219.826	-38.9743	57.6236	-215.726	-9.10742	35.0269	
